ffmpeg started on 2026-01-20 at 18:56:58
Report written to "D:\Convert\FFMetrics\reports\psnr_report-6.txt"
Log level: 32
Command line:
ffmpeg -hide_banner -nostdin -r 24000/1001 -i "F:\\Convert\\files\\[DC] Make Heroine ga Oosugiru - 07_Telegram_HEVC(219).mkv" -r 24000/1001 -i "F:\\Convert\\files\\[DC] Make Heroine ga Oosugiru - 07_Telegram.mp4" -lavfi "[0:v]settb=AVTB,setpts=PTS-STARTPTS,format=pix_fmts=yuv420p10le,fps=24000/1001,scale=1920:1080:flags=lanczos:param0=3:out_range=limited:out_color_matrix=bt709:out_chroma_loc=left,setsar=1/1,setdar=(1920/1080)*(1/1),colorspace=format=yuv420p10:range=tv:primaries=bt709:trc=bt709:space=bt709:fast=0[main];[1:v]settb=AVTB,setpts=PTS-STARTPTS,format=pix_fmts=yuv420p,fps=24000/1001,scale=1920:1080:flags=lanczos:param0=3:out_range=limited:out_color_matrix=bt709:out_chroma_loc=left,setsar=1.000,setdar=1.778,colorspace=format=yuv420p:range=tv:primaries=bt709:trc=bt709:space=bt709:fast=0[ref];[main][ref]psnr=eof_action=endall:stats_file='D\\:/Convert/FFMetrics/logs/psnr_logfile-6.txt'" -f null -
Input #0, matroska,webm, from 'F:\Convert\files\[DC] Make Heroine ga Oosugiru - 07_Telegram_HEVC(219).mkv':
  Metadata:
    COMPATIBLE_BRANDS: isomiso2avc1mp41
    MAJOR_BRAND     : isom
    MINOR_VERSION   : 512
    ENCODER         : Lavf61.7.100
  Duration: 00:24:06.79, start: -0.021000, bitrate: 906 kb/s
  Stream #0:0: Video: hevc (Main 10), yuv420p10le(tv, bt709, progressive), 1920x1080 [SAR 1:1 DAR 16:9], 23.98 fps, 23.98 tbr, 1k tbn (default)
      Metadata:
        HANDLER_NAME    : VideoHandler
        VENDOR_ID       : [0][0][0][0]
        ENCODER         : Lavc61.19.100 libx265
        BPS             : 708973
        DURATION        : 00:24:06.569708333
        NUMBER_OF_FRAMES: 34683
        NUMBER_OF_BYTES : 128197449
        _STATISTICS_WRITING_APP: mkvpropedit v94.0 ('Initiate') 64-bit
        _STATISTICS_WRITING_DATE_UTC: 2026-01-20 14:53:23
        _STATISTICS_TAGS: BPS DURATION NUMBER_OF_FRAMES NUMBER_OF_BYTES
  Stream #0:1: Audio: aac (LC), 48000 Hz, stereo, fltp (default)
      Metadata:
        HANDLER_NAME    : SoundHandler
        VENDOR_ID       : [0][0][0][0]
        ENCODER         : Lavc61.19.100 aac
        BPS             : 193194
        DURATION        : 00:24:06.784000000
        NUMBER_OF_FRAMES: 67819
        NUMBER_OF_BYTES : 34938755
        _STATISTICS_WRITING_APP: mkvpropedit v94.0 ('Initiate') 64-bit
        _STATISTICS_WRITING_DATE_UTC: 2026-01-20 14:53:23
        _STATISTICS_TAGS: BPS DURATION NUMBER_OF_FRAMES NUMBER_OF_BYTES
Input #1, mov,mp4,m4a,3gp,3g2,mj2, from 'F:\Convert\files\[DC] Make Heroine ga Oosugiru - 07_Telegram.mp4':
  Metadata:
    major_brand     : isom
    minor_version   : 512
    compatible_brands: isomiso2avc1mp41
    encoder         : Lavf60.16.100
  Duration: 00:24:06.74, start: 0.000000, bitrate: 3764 kb/s
  Stream #1:0[0x1](und): Video: h264 (High) (avc1 / 0x31637661), yuv420p(tv, bt709, progressive), 1920x1080 [SAR 1:1 DAR 16:9], 3616 kb/s, 23.98 fps, 23.98 tbr, 24k tbn (default)
      Metadata:
        handler_name    : VideoHandler
        vendor_id       : [0][0][0][0]
        encoder         : Lavc60.31.102 h264_qsv
  Stream #1:1[0x2](und): Audio: aac (HE-AACv2) (mp4a / 0x6134706D), 48000 Hz, stereo, fltp, 144 kb/s (default)
      Metadata:
        handler_name    : SoundHandler
        vendor_id       : [0][0][0][0]
Stream mapping:
  Stream #0:0 (hevc) -> settb:default
  Stream #1:0 (h264) -> settb:default
  psnr:default -> Stream #0:0 (wrapped_avframe)
  Stream #0:1 -> #0:1 (aac (native) -> pcm_s16le (native))
Output #0, null, to 'pipe:':
  Metadata:
    COMPATIBLE_BRANDS: isomiso2avc1mp41
    MAJOR_BRAND     : isom
    MINOR_VERSION   : 512
    encoder         : Lavf61.7.100
  Stream #0:0: Video: wrapped_avframe, yuv420p10le(tv, bt709, progressive), 1920x1080 [SAR 1:1 DAR 16:9], q=2-31, 200 kb/s, 23.98 fps, 23.98 tbn
      Metadata:
        encoder         : Lavc61.19.100 wrapped_avframe
  Stream #0:1: Audio: pcm_s16le, 48000 Hz, stereo, s16, 1536 kb/s (default)
      Metadata:
        HANDLER_NAME    : SoundHandler
        VENDOR_ID       : [0][0][0][0]
        _STATISTICS_TAGS: BPS DURATION NUMBER_OF_FRAMES NUMBER_OF_BYTES
        BPS             : 193194
        DURATION        : 00:24:06.784000000
        NUMBER_OF_FRAMES: 67819
        NUMBER_OF_BYTES : 34938755
        _STATISTICS_WRITING_APP: mkvpropedit v94.0 ('Initiate') 64-bit
        _STATISTICS_WRITING_DATE_UTC: 2026-01-20 14:53:23
        encoder         : Lavc61.19.100 pcm_s16le
frame=  126 fps=0.0 q=-0.0 size=N/A time=00:00:05.25 bitrate=N/A speed=10.2x    frame=  332 fps=319 q=-0.0 size=N/A time=00:00:13.84 bitrate=N/A speed=13.3x    frame=  533 fps=344 q=-0.0 size=N/A time=00:00:22.23 bitrate=N/A speed=14.3x    frame=  739 fps=358 q=-0.0 size=N/A time=00:00:30.82 bitrate=N/A speed=14.9x    frame=  919 fps=355 q=-0.0 size=N/A time=00:00:38.32 bitrate=N/A speed=14.8x    frame= 1070 fps=345 q=-0.0 size=N/A time=00:00:44.62 bitrate=N/A speed=14.4x    frame= 1230 fps=341 q=-0.0 size=N/A time=00:00:51.30 bitrate=N/A speed=14.2x    frame= 1397 fps=339 q=-0.0 size=N/A time=00:00:58.26 bitrate=N/A speed=14.1x    frame= 1551 fps=334 q=-0.0 size=N/A time=00:01:04.68 bitrate=N/A speed=13.9x    frame= 1703 fps=330 q=-0.0 size=N/A time=00:01:11.02 bitrate=N/A speed=13.8x    frame= 1880 fps=332 q=-0.0 size=N/A time=00:01:18.41 bitrate=N/A speed=13.8x    frame= 2046 fps=330 q=-0.0 size=N/A time=00:01:25.33 bitrate=N/A speed=13.8x    frame= 2163 fps=323 q=-0.0 size=N/A time=00:01:30.21 bitrate=N/A speed=13.5x    frame= 2323 fps=322 q=-0.0 size=N/A time=00:01:36.88 bitrate=N/A speed=13.4x    frame= 2468 fps=319 q=-0.0 size=N/A time=00:01:42.93 bitrate=N/A speed=13.3x    frame= 2606 fps=316 q=-0.0 size=N/A time=00:01:48.69 bitrate=N/A speed=13.2x    frame= 2788 fps=318 q=-0.0 size=N/A time=00:01:56.28 bitrate=N/A speed=13.3x    frame= 2974 fps=320 q=-0.0 size=N/A time=00:02:04.04 bitrate=N/A speed=13.4x    frame= 3169 fps=323 q=-0.0 size=N/A time=00:02:12.17 bitrate=N/A speed=13.5x    frame= 3362 fps=326 q=-0.0 size=N/A time=00:02:20.22 bitrate=N/A speed=13.6x    frame= 3572 fps=330 q=-0.0 size=N/A time=00:02:28.98 bitrate=N/A speed=13.7x    frame= 3775 fps=333 q=-0.0 size=N/A time=00:02:37.44 bitrate=N/A speed=13.9x    frame= 3977 fps=335 q=-0.0 size=N/A time=00:02:45.87 bitrate=N/A speed=  14x    frame= 4172 fps=337 q=-0.0 size=N/A time=00:02:54.00 bitrate=N/A speed=14.1x    frame= 4375 fps=339 q=-0.0 size=N/A time=00:03:02.47 bitrate=N/A speed=14.1x    frame= 4571 fps=341 q=-0.0 size=N/A time=00:03:10.64 bitrate=N/A speed=14.2x    frame= 4767 fps=342 q=-0.0 size=N/A time=00:03:18.82 bitrate=N/A speed=14.3x    frame= 4972 fps=344 q=-0.0 size=N/A time=00:03:27.37 bitrate=N/A speed=14.4x    frame= 5167 fps=345 q=-0.0 size=N/A time=00:03:35.50 bitrate=N/A speed=14.4x    frame= 5364 fps=347 q=-0.0 size=N/A time=00:03:43.72 bitrate=N/A speed=14.5x    frame= 5563 fps=348 q=-0.0 size=N/A time=00:03:52.02 bitrate=N/A speed=14.5x    frame= 5762 fps=349 q=-0.0 size=N/A time=00:04:00.32 bitrate=N/A speed=14.6x    frame= 5960 fps=350 q=-0.0 size=N/A time=00:04:08.58 bitrate=N/A speed=14.6x    frame= 6146 fps=351 q=-0.0 size=N/A time=00:04:16.33 bitrate=N/A speed=14.6x    frame= 6349 fps=352 q=-0.0 size=N/A time=00:04:24.80 bitrate=N/A speed=14.7x    frame= 6547 fps=353 q=-0.0 size=N/A time=00:04:33.06 bitrate=N/A speed=14.7x    frame= 6745 fps=354 q=-0.0 size=N/A time=00:04:41.32 bitrate=N/A speed=14.7x    frame= 6945 fps=354 q=-0.0 size=N/A time=00:04:49.66 bitrate=N/A speed=14.8x    frame= 7137 fps=355 q=-0.0 size=N/A time=00:04:57.67 bitrate=N/A speed=14.8x    frame= 7332 fps=355 q=-0.0 size=N/A time=00:05:05.80 bitrate=N/A speed=14.8x    frame= 7522 fps=356 q=-0.0 size=N/A time=00:05:13.73 bitrate=N/A speed=14.8x    frame= 7711 fps=356 q=-0.0 size=N/A time=00:05:21.61 bitrate=N/A speed=14.8x    frame= 7907 fps=357 q=-0.0 size=N/A time=00:05:29.78 bitrate=N/A speed=14.9x    frame= 8103 fps=357 q=-0.0 size=N/A time=00:05:37.96 bitrate=N/A speed=14.9x    frame= 8300 fps=358 q=-0.0 size=N/A time=00:05:46.17 bitrate=N/A speed=14.9x    frame= 8492 fps=358 q=-0.0 size=N/A time=00:05:54.18 bitrate=N/A speed=14.9x    frame= 8690 fps=358 q=-0.0 size=N/A time=00:06:02.44 bitrate=N/A speed=14.9x    frame= 8876 fps=358 q=-0.0 size=N/A time=00:06:10.20 bitrate=N/A speed=14.9x    frame= 9078 fps=359 q=-0.0 size=N/A time=00:06:18.62 bitrate=N/A speed=  15x    frame= 9278 fps=360 q=-0.0 size=N/A time=00:06:26.96 bitrate=N/A speed=  15x    frame= 9472 fps=360 q=-0.0 size=N/A time=00:06:35.06 bitrate=N/A speed=  15x    frame= 9664 fps=360 q=-0.0 size=N/A time=00:06:43.06 bitrate=N/A speed=  15x    frame= 9865 fps=361 q=-0.0 size=N/A time=00:06:51.45 bitrate=N/A speed=  15x    frame=10061 fps=361 q=-0.0 size=N/A time=00:06:59.62 bitrate=N/A speed=15.1x    frame=10258 fps=361 q=-0.0 size=N/A time=00:07:07.84 bitrate=N/A speed=15.1x    frame=10455 fps=362 q=-0.0 size=N/A time=00:07:16.06 bitrate=N/A speed=15.1x    frame=10652 fps=362 q=-0.0 size=N/A time=00:07:24.27 bitrate=N/A speed=15.1x    frame=10843 fps=362 q=-0.0 size=N/A time=00:07:32.24 bitrate=N/A speed=15.1x    frame=11042 fps=362 q=-0.0 size=N/A time=00:07:40.54 bitrate=N/A speed=15.1x    frame=11226 fps=362 q=-0.0 size=N/A time=00:07:48.21 bitrate=N/A speed=15.1x    frame=11418 fps=363 q=-0.0 size=N/A time=00:07:56.22 bitrate=N/A speed=15.1x    frame=11620 fps=363 q=-0.0 size=N/A time=00:08:04.65 bitrate=N/A speed=15.1x    frame=11813 fps=363 q=-0.0 size=N/A time=00:08:12.70 bitrate=N/A speed=15.2x    frame=12006 fps=364 q=-0.0 size=N/A time=00:08:20.75 bitrate=N/A speed=15.2x    frame=12213 fps=364 q=-0.0 size=N/A time=00:08:29.38 bitrate=N/A speed=15.2x    frame=12407 fps=364 q=-0.0 size=N/A time=00:08:37.47 bitrate=N/A speed=15.2x    frame=12604 fps=364 q=-0.0 size=N/A time=00:08:45.69 bitrate=N/A speed=15.2x    frame=12802 fps=365 q=-0.0 size=N/A time=00:08:53.95 bitrate=N/A speed=15.2x    frame=12997 fps=365 q=-0.0 size=N/A time=00:09:02.08 bitrate=N/A speed=15.2x    frame=13197 fps=365 q=-0.0 size=N/A time=00:09:10.42 bitrate=N/A speed=15.2x    frame=13383 fps=365 q=-0.0 size=N/A time=00:09:18.18 bitrate=N/A speed=15.2x    frame=13577 fps=365 q=-0.0 size=N/A time=00:09:26.27 bitrate=N/A speed=15.2x    frame=13775 fps=366 q=-0.0 size=N/A time=00:09:34.53 bitrate=N/A speed=15.2x    frame=13970 fps=366 q=-0.0 size=N/A time=00:09:42.66 bitrate=N/A speed=15.3x    frame=14152 fps=366 q=-0.0 size=N/A time=00:09:50.25 bitrate=N/A speed=15.3x    frame=14354 fps=366 q=-0.0 size=N/A time=00:09:58.68 bitrate=N/A speed=15.3x    frame=14544 fps=366 q=-0.0 size=N/A time=00:10:06.60 bitrate=N/A speed=15.3x    frame=14738 fps=366 q=-0.0 size=N/A time=00:10:14.69 bitrate=N/A speed=15.3x    frame=14934 fps=366 q=-0.0 size=N/A time=00:10:22.87 bitrate=N/A speed=15.3x    frame=15109 fps=366 q=-0.0 size=N/A time=00:10:30.17 bitrate=N/A speed=15.3x    frame=15289 fps=366 q=-0.0 size=N/A time=00:10:37.67 bitrate=N/A speed=15.3x    frame=15486 fps=366 q=-0.0 size=N/A time=00:10:45.89 bitrate=N/A speed=15.3x    frame=15682 fps=366 q=-0.0 size=N/A time=00:10:54.07 bitrate=N/A speed=15.3x    frame=15878 fps=366 q=-0.0 size=N/A time=00:11:02.24 bitrate=N/A speed=15.3x    frame=16068 fps=366 q=-0.0 size=N/A time=00:11:10.16 bitrate=N/A speed=15.3x    frame=16277 fps=367 q=-0.0 size=N/A time=00:11:18.88 bitrate=N/A speed=15.3x    frame=16464 fps=367 q=-0.0 size=N/A time=00:11:26.68 bitrate=N/A speed=15.3x    frame=16652 fps=367 q=-0.0 size=N/A time=00:11:34.52 bitrate=N/A speed=15.3x    frame=16850 fps=367 q=-0.0 size=N/A time=00:11:42.78 bitrate=N/A speed=15.3x    frame=17053 fps=367 q=-0.0 size=N/A time=00:11:51.25 bitrate=N/A speed=15.3x    frame=17248 fps=367 q=-0.0 size=N/A time=00:11:59.38 bitrate=N/A speed=15.3x    frame=17443 fps=367 q=-0.0 size=N/A time=00:12:07.51 bitrate=N/A speed=15.3x    frame=17632 fps=367 q=-0.0 size=N/A time=00:12:15.40 bitrate=N/A speed=15.3x    frame=17831 fps=368 q=-0.0 size=N/A time=00:12:23.70 bitrate=N/A speed=15.3x    frame=18026 fps=368 q=-0.0 size=N/A time=00:12:31.83 bitrate=N/A speed=15.3x    frame=18211 fps=368 q=-0.0 size=N/A time=00:12:39.55 bitrate=N/A speed=15.3x    frame=18398 fps=368 q=-0.0 size=N/A time=00:12:47.34 bitrate=N/A speed=15.3x    frame=18599 fps=368 q=-0.0 size=N/A time=00:12:55.73 bitrate=N/A speed=15.3x    frame=18795 fps=368 q=-0.0 size=N/A time=00:13:03.90 bitrate=N/A speed=15.3x    frame=18994 fps=368 q=-0.0 size=N/A time=00:13:12.20 bitrate=N/A speed=15.4x    frame=19193 fps=368 q=-0.0 size=N/A time=00:13:20.50 bitrate=N/A speed=15.4x    frame=19396 fps=369 q=-0.0 size=N/A time=00:13:28.97 bitrate=N/A speed=15.4x    frame=19592 fps=369 q=-0.0 size=N/A time=00:13:37.14 bitrate=N/A speed=15.4x    frame=19794 fps=369 q=-0.0 size=N/A time=00:13:45.57 bitrate=N/A speed=15.4x    frame=19994 fps=369 q=-0.0 size=N/A time=00:13:53.91 bitrate=N/A speed=15.4x    frame=20193 fps=369 q=-0.0 size=N/A time=00:14:02.21 bitrate=N/A speed=15.4x    frame=20380 fps=369 q=-0.0 size=N/A time=00:14:10.01 bitrate=N/A speed=15.4x    frame=20573 fps=369 q=-0.0 size=N/A time=00:14:18.06 bitrate=N/A speed=15.4x    frame=20759 fps=369 q=-0.0 size=N/A time=00:14:25.82 bitrate=N/A speed=15.4x    frame=20962 fps=369 q=-0.0 size=N/A time=00:14:34.29 bitrate=N/A speed=15.4x    frame=21161 fps=370 q=-0.0 size=N/A time=00:14:42.59 bitrate=N/A speed=15.4x    frame=21358 fps=370 q=-0.0 size=N/A time=00:14:50.80 bitrate=N/A speed=15.4x    frame=21555 fps=370 q=-0.0 size=N/A time=00:14:59.02 bitrate=N/A speed=15.4x    frame=21752 fps=370 q=-0.0 size=N/A time=00:15:07.23 bitrate=N/A speed=15.4x    frame=21937 fps=370 q=-0.0 size=N/A time=00:15:14.95 bitrate=N/A speed=15.4x    frame=22147 fps=370 q=-0.0 size=N/A time=00:15:23.71 bitrate=N/A speed=15.4x    frame=22343 fps=370 q=-0.0 size=N/A time=00:15:31.88 bitrate=N/A speed=15.4x    frame=22543 fps=370 q=-0.0 size=N/A time=00:15:40.23 bitrate=N/A speed=15.4x    frame=22737 fps=370 q=-0.0 size=N/A time=00:15:48.32 bitrate=N/A speed=15.4x    frame=22931 fps=370 q=-0.0 size=N/A time=00:15:56.41 bitrate=N/A speed=15.4x    frame=23128 fps=370 q=-0.0 size=N/A time=00:16:04.63 bitrate=N/A speed=15.4x    frame=23322 fps=370 q=-0.0 size=N/A time=00:16:12.72 bitrate=N/A speed=15.5x    frame=23519 fps=370 q=-0.0 size=N/A time=00:16:20.93 bitrate=N/A speed=15.5x    frame=23718 fps=371 q=-0.0 size=N/A time=00:16:29.23 bitrate=N/A speed=15.5x    frame=23916 fps=371 q=-0.0 size=N/A time=00:16:37.49 bitrate=N/A speed=15.5x    frame=24114 fps=371 q=-0.0 size=N/A time=00:16:45.75 bitrate=N/A speed=15.5x    frame=24310 fps=371 q=-0.0 size=N/A time=00:16:53.92 bitrate=N/A speed=15.5x    frame=24512 fps=371 q=-0.0 size=N/A time=00:17:02.35 bitrate=N/A speed=15.5x    frame=24713 fps=371 q=-0.0 size=N/A time=00:17:10.73 bitrate=N/A speed=15.5x    frame=24907 fps=371 q=-0.0 size=N/A time=00:17:18.82 bitrate=N/A speed=15.5x    frame=25115 fps=371 q=-0.0 size=N/A time=00:17:27.50 bitrate=N/A speed=15.5x    frame=25310 fps=371 q=-0.0 size=N/A time=00:17:35.63 bitrate=N/A speed=15.5x    frame=25508 fps=372 q=-0.0 size=N/A time=00:17:43.89 bitrate=N/A speed=15.5x    frame=25698 fps=372 q=-0.0 size=N/A time=00:17:51.82 bitrate=N/A speed=15.5x    frame=25896 fps=372 q=-0.0 size=N/A time=00:18:00.07 bitrate=N/A speed=15.5x    frame=26095 fps=372 q=-0.0 size=N/A time=00:18:08.37 bitrate=N/A speed=15.5x    frame=26294 fps=372 q=-0.0 size=N/A time=00:18:16.67 bitrate=N/A speed=15.5x    frame=26488 fps=372 q=-0.0 size=N/A time=00:18:24.77 bitrate=N/A speed=15.5x    frame=26694 fps=372 q=-0.0 size=N/A time=00:18:33.36 bitrate=N/A speed=15.5x    frame=26888 fps=372 q=-0.0 size=N/A time=00:18:41.45 bitrate=N/A speed=15.5x    frame=27072 fps=372 q=-0.0 size=N/A time=00:18:49.12 bitrate=N/A speed=15.5x    frame=27261 fps=372 q=-0.0 size=N/A time=00:18:57.01 bitrate=N/A speed=15.5x    frame=27446 fps=372 q=-0.0 size=N/A time=00:19:04.72 bitrate=N/A speed=15.5x    frame=27635 fps=372 q=-0.0 size=N/A time=00:19:12.60 bitrate=N/A speed=15.5x    frame=27824 fps=372 q=-0.0 size=N/A time=00:19:20.49 bitrate=N/A speed=15.5x    frame=28017 fps=372 q=-0.0 size=N/A time=00:19:28.54 bitrate=N/A speed=15.5x    frame=28204 fps=372 q=-0.0 size=N/A time=00:19:36.34 bitrate=N/A speed=15.5x    frame=28400 fps=372 q=-0.0 size=N/A time=00:19:44.51 bitrate=N/A speed=15.5x    frame=28601 fps=372 q=-0.0 size=N/A time=00:19:52.90 bitrate=N/A speed=15.5x    frame=28787 fps=372 q=-0.0 size=N/A time=00:20:00.65 bitrate=N/A speed=15.5x    frame=28959 fps=372 q=-0.0 size=N/A time=00:20:07.83 bitrate=N/A speed=15.5x    frame=29139 fps=372 q=-0.0 size=N/A time=00:20:15.33 bitrate=N/A speed=15.5x    frame=29327 fps=371 q=-0.0 size=N/A time=00:20:23.18 bitrate=N/A speed=15.5x    frame=29501 fps=371 q=-0.0 size=N/A time=00:20:30.43 bitrate=N/A speed=15.5x    frame=29683 fps=371 q=-0.0 size=N/A time=00:20:38.02 bitrate=N/A speed=15.5x    frame=29864 fps=371 q=-0.0 size=N/A time=00:20:45.57 bitrate=N/A speed=15.5x    frame=30029 fps=371 q=-0.0 size=N/A time=00:20:52.45 bitrate=N/A speed=15.5x    frame=30222 fps=371 q=-0.0 size=N/A time=00:21:00.50 bitrate=N/A speed=15.5x    frame=30408 fps=371 q=-0.0 size=N/A time=00:21:08.26 bitrate=N/A speed=15.5x    frame=30605 fps=371 q=-0.0 size=N/A time=00:21:16.48 bitrate=N/A speed=15.5x    frame=30813 fps=371 q=-0.0 size=N/A time=00:21:25.15 bitrate=N/A speed=15.5x    frame=30997 fps=371 q=-0.0 size=N/A time=00:21:32.83 bitrate=N/A speed=15.5x    frame=31195 fps=371 q=-0.0 size=N/A time=00:21:41.09 bitrate=N/A speed=15.5x    frame=31393 fps=371 q=-0.0 size=N/A time=00:21:49.34 bitrate=N/A speed=15.5x    frame=31586 fps=371 q=-0.0 size=N/A time=00:21:57.39 bitrate=N/A speed=15.5x    frame=31773 fps=371 q=-0.0 size=N/A time=00:22:05.19 bitrate=N/A speed=15.5x    frame=31955 fps=371 q=-0.0 size=N/A time=00:22:12.78 bitrate=N/A speed=15.5x    frame=32149 fps=371 q=-0.0 size=N/A time=00:22:20.88 bitrate=N/A speed=15.5x    frame=32344 fps=371 q=-0.0 size=N/A time=00:22:29.01 bitrate=N/A speed=15.5x    frame=32550 fps=371 q=-0.0 size=N/A time=00:22:37.60 bitrate=N/A speed=15.5x    frame=32708 fps=371 q=-0.0 size=N/A time=00:22:44.19 bitrate=N/A speed=15.5x    frame=32865 fps=370 q=-0.0 size=N/A time=00:22:50.74 bitrate=N/A speed=15.4x    frame=33053 fps=370 q=-0.0 size=N/A time=00:22:58.58 bitrate=N/A speed=15.4x    frame=33238 fps=370 q=-0.0 size=N/A time=00:23:06.30 bitrate=N/A speed=15.4x    frame=33414 fps=370 q=-0.0 size=N/A time=00:23:13.64 bitrate=N/A speed=15.4x    frame=33567 fps=370 q=-0.0 size=N/A time=00:23:20.02 bitrate=N/A speed=15.4x    frame=33730 fps=369 q=-0.0 size=N/A time=00:23:26.82 bitrate=N/A speed=15.4x    frame=33855 fps=369 q=-0.0 size=N/A time=00:23:32.03 bitrate=N/A speed=15.4x    frame=34008 fps=368 q=-0.0 size=N/A time=00:23:38.41 bitrate=N/A speed=15.4x    frame=34173 fps=368 q=-0.0 size=N/A time=00:23:45.29 bitrate=N/A speed=15.3x    frame=34325 fps=367 q=-0.0 size=N/A time=00:23:51.63 bitrate=N/A speed=15.3x    frame=34462 fps=367 q=-0.0 size=N/A time=00:23:57.35 bitrate=N/A speed=15.3x    frame=34645 fps=367 q=-0.0 size=N/A time=00:24:04.98 bitrate=N/A speed=15.3x    [Parsed_psnr_16 @ 00000248353f3c80] PSNR y:48.713945 u:50.341930 v:50.390336 average:49.198015 min:37.702480 max:inf
[out#0/null @ 0000024828358a00] video:14903KiB audio:271276KiB subtitle:0KiB other streams:0KiB global headers:0KiB muxing overhead: unknown
frame=34683 fps=367 q=-0.0 Lsize=N/A time=00:24:06.57 bitrate=N/A speed=15.3x    
